<svg data-v-423bf9ae="" xmlns="http://www.w3.org/2000/svg" viewBox="0 0 420 90" class="iconLeftSlogan"><!----><!----><!----><g data-v-423bf9ae="" id="56b1cb90-14bc-44b7-a335-0b53057feb69" fill="white" transform="matrix(5.439709543503888,0,0,5.439709543503888,102.38440293034267,-7.6155938272591115)"><path d="M7.99 11.58L7.99 11.58Q8.18 11.58 8.29 11.68L8.29 11.68L8.29 11.68Q8.41 11.79 8.41 11.96L8.41 11.96L8.41 11.96Q8.41 12.12 8.29 12.23L8.29 12.23L8.29 12.23Q8.18 12.33 7.99 12.33L7.99 12.33L1.82 12.33L1.82 12.33Q1.65 12.33 1.53 12.21L1.53 12.21L1.53 12.21Q1.40 12.10 1.40 11.91L1.40 11.91L1.40 1.82L1.40 1.82Q1.40 1.64 1.53 1.52L1.53 1.52L1.53 1.52Q1.65 1.40 1.82 1.40L1.82 1.40L1.82 1.40Q2.00 1.40 2.12 1.52L2.12 1.52L2.12 1.52Q2.24 1.64 2.24 1.82L2.24 1.82L2.24 11.58L7.99 11.58ZM10.30 5.10L10.30 5.10Q10.30 4.90 10.42 4.79L10.42 4.79L10.42 4.79Q10.54 4.68 10.72 4.68L10.72 4.68L10.72 4.68Q10.92 4.68 11.03 4.79L11.03 4.79L11.03 4.79Q11.14 4.90 11.14 5.10L11.14 5.10L11.14 11.91L11.14 11.91Q11.14 12.10 11.03 12.21L11.03 12.21L11.03 12.21Q10.92 12.33 10.72 12.33L10.72 12.33L10.72 12.33Q10.54 12.33 10.42 12.21L10.42 12.21L10.42 12.21Q10.30 12.10 10.30 11.91L10.30 11.91L10.30 5.10ZM10.72 1.76L10.72 1.76Q10.99 1.76 11.18 1.93L11.18 1.93L11.18 1.93Q11.37 2.10 11.37 2.41L11.37 2.41L11.37 2.41Q11.37 2.69 11.18 2.88L11.18 2.88L11.18 2.88Q10.99 3.07 10.71 3.07L10.71 3.07L10.71 3.07Q10.43 3.07 10.25 2.88L10.25 2.88L10.25 2.88Q10.07 2.69 10.07 2.41L10.07 2.41L10.07 2.41Q10.07 2.10 10.26 1.93L10.26 1.93L10.26 1.93Q10.46 1.76 10.72 1.76L10.72 1.76ZM19.96 4.69L19.96 4.69Q20.20 4.80 20.20 5.05L20.20 5.05L20.20 5.05Q20.20 5.15 20.17 5.21L20.17 5.21L17.02 12.05L17.02 12.05Q16.88 12.35 16.58 12.35L16.58 12.35L16.58 12.35Q16.45 12.35 16.34 12.27L16.34 12.27L16.34 12.27Q16.24 12.19 16.18 12.05L16.18 12.05L12.99 5.22L12.99 5.22Q12.96 5.17 12.96 5.07L12.96 5.07L12.96 5.07Q12.96 4.82 13.20 4.70L13.20 4.70L13.20 4.70Q13.29 4.66 13.37 4.66L13.37 4.66L13.37 4.66Q13.61 4.66 13.72 4.90L13.72 4.90L16.59 11.12L19.42 4.89L19.42 4.89Q19.53 4.65 19.78 4.65L19.78 4.65L19.78 4.65Q19.88 4.65 19.96 4.69L19.96 4.69ZM24.92 4.61L24.92 4.61Q25.94 4.61 26.75 5.09L26.75 5.09L26.75 5.09Q27.55 5.57 28 6.43L28 6.43L28 6.43Q28.45 7.28 28.45 8.37L28.45 8.37L28.45 8.37Q28.45 8.55 28.34 8.66L28.34 8.66L28.34 8.66Q28.22 8.76 28.04 8.76L28.04 8.76L22.18 8.76L22.18 8.76Q22.22 9.59 22.61 10.24L22.61 10.24L22.61 10.24Q23.00 10.89 23.66 11.26L23.66 11.26L23.66 11.26Q24.32 11.62 25.13 11.62L25.13 11.62L25.13 11.62Q25.68 11.62 26.23 11.43L26.23 11.43L26.23 11.43Q26.78 11.24 27.10 10.93L27.10 10.93L27.10 10.93Q27.24 10.82 27.40 10.82L27.40 10.82L27.40 10.82Q27.55 10.82 27.65 10.91L27.65 10.91L27.65 10.91Q27.80 11.03 27.80 11.20L27.80 11.20L27.80 11.20Q27.80 11.34 27.68 11.47L27.68 11.47L27.68 11.47Q27.23 11.87 26.51 12.14L26.51 12.14L26.51 12.14Q25.79 12.40 25.13 12.40L25.13 12.40L25.13 12.40Q24.02 12.40 23.16 11.91L23.16 11.91L23.16 11.91Q22.30 11.41 21.81 10.52L21.81 10.52L21.81 10.52Q21.32 9.63 21.32 8.51L21.32 8.51L21.32 8.51Q21.32 7.38 21.78 6.49L21.78 6.49L21.78 6.49Q22.23 5.60 23.05 5.10L23.05 5.10L23.05 5.10Q23.87 4.61 24.92 4.61L24.92 4.61ZM24.92 5.39L24.92 5.39Q23.83 5.39 23.08 6.12L23.08 6.12L23.08 6.12Q22.33 6.85 22.19 8.04L22.19 8.04L27.64 8.04L27.64 8.04Q27.54 6.85 26.80 6.12L26.80 6.12L26.80 6.12Q26.05 5.39 24.92 5.39L24.92 5.39ZM41.10 11.58L41.10 11.58Q41.29 11.58 41.41 11.68L41.41 11.68L41.41 11.68Q41.52 11.79 41.52 11.96L41.52 11.96L41.52 11.96Q41.52 12.12 41.41 12.23L41.41 12.23L41.41 12.23Q41.29 12.33 41.10 12.33L41.10 12.33L34.93 12.33L34.93 12.33Q34.76 12.33 34.64 12.21L34.64 12.21L34.64 12.21Q34.51 12.10 34.51 11.91L34.51 11.91L34.51 1.82L34.51 1.82Q34.51 1.64 34.64 1.52L34.64 1.52L34.64 1.52Q34.76 1.40 34.93 1.40L34.93 1.40L34.93 1.40Q35.11 1.40 35.23 1.52L35.23 1.52L35.23 1.52Q35.35 1.64 35.35 1.82L35.35 1.82L35.35 11.58L41.10 11.58ZM49.62 4.68L49.62 4.68Q49.81 4.68 49.92 4.79L49.92 4.79L49.92 4.79Q50.04 4.90 50.04 5.10L50.04 5.10L50.04 11.91L50.04 11.91Q50.04 12.10 49.92 12.21L49.92 12.21L49.92 12.21Q49.81 12.33 49.62 12.33L49.62 12.33L49.62 12.33Q49.43 12.33 49.31 12.21L49.31 12.21L49.31 12.21Q49.20 12.10 49.20 11.91L49.20 11.91L49.20 11.19L49.20 11.19Q48.72 11.77 48.03 12.10L48.03 12.10L48.03 12.10Q47.35 12.43 46.54 12.43L46.54 12.43L46.54 12.43Q45.51 12.43 44.71 12.01L44.71 12.01L44.71 12.01Q43.90 11.59 43.45 10.79L43.45 10.79L43.45 10.79Q42.99 9.98 42.99 8.86L42.99 8.86L42.99 5.10L42.99 5.10Q42.99 4.91 43.11 4.79L43.11 4.79L43.11 4.79Q43.23 4.68 43.41 4.68L43.41 4.68L43.41 4.68Q43.60 4.68 43.71 4.79L43.71 4.79L43.71 4.79Q43.83 4.91 43.83 5.10L43.83 5.10L43.83 8.86L43.83 8.86Q43.83 10.19 44.58 10.89L44.58 10.89L44.58 10.89Q45.33 11.59 46.54 11.59L46.54 11.59L46.54 11.59Q47.28 11.59 47.89 11.30L47.89 11.30L47.89 11.30Q48.50 11.02 48.85 10.51L48.85 10.51L48.85 10.51Q49.20 10.00 49.20 9.38L49.20 9.38L49.20 5.10L49.20 5.10Q49.20 4.90 49.31 4.79L49.31 4.79L49.31 4.79Q49.43 4.68 49.62 4.68L49.62 4.68ZM58.13 11.65L58.13 11.65Q58.25 11.82 58.25 11.97L58.25 11.97L58.25 11.97Q58.25 12.14 58.13 12.24L58.13 12.24L58.13 12.24Q58.00 12.33 57.88 12.33L57.88 12.33L57.88 12.33Q57.71 12.33 57.62 12.28L57.62 12.28L57.62 12.28Q57.53 12.22 57.40 12.07L57.40 12.07L55.05 8.95L52.50 12.21L52.50 12.21Q52.42 12.33 52.21 12.33L52.21 12.33L52.21 12.33Q52.02 12.33 51.90 12.21L51.90 12.21L51.90 12.21Q51.79 12.08 51.79 11.91L51.79 11.91L51.79 11.91Q51.79 11.76 51.88 11.65L51.88 11.65L54.49 8.41L52.19 5.38L52.19 5.38Q52.09 5.26 52.09 5.10L52.09 5.10L52.09 5.10Q52.09 4.93 52.21 4.80L52.21 4.80L52.21 4.80Q52.33 4.68 52.51 4.68L52.51 4.68L52.51 4.68Q52.70 4.68 52.82 4.80L52.82 4.80L55.06 7.78L57.40 4.93L57.40 4.93Q57.61 4.68 57.83 4.68L57.83 4.68L57.83 4.68Q58.02 4.68 58.12 4.79L58.12 4.79L58.12 4.79Q58.23 4.90 58.23 5.07L58.23 5.07L58.23 5.07Q58.23 5.22 58.11 5.38L58.11 5.38L55.64 8.33L58.13 11.65Z"></path></g><!----><g data-v-423bf9ae="" id="a28f3a02-2a18-42c7-8255-ae2a5c40e5dc" transform="matrix(2.8125,0,0,2.8125,0,0)" stroke="none" fill="white"><path d="M16 32c8.837 0 16-7.163 16-16S24.837 0 16 0 0 7.163 0 16s7.163 16 16 16zM14.817 6.421h2v8.886h8.887v2H14.817V6.421zm-5.959.437h2v14.283h14.283v2H8.858V6.858z"></path></g><!----><g data-v-423bf9ae="" id="7c783768-9e37-44b1-9877-da829f498274" fill="white" transform="matrix(1.3131528206641994,0,0,1.3131528206641994,108.43734385310546,57.79390319787798)"><path d="M1.19 1.68L1.19 12.60L1.61 12.60L1.61 1.68ZM10.99 3.15C10.99 3.26 11.03 3.36 11.10 3.43C11.17 3.50 11.26 3.54 11.38 3.54C11.50 3.54 11.60 3.50 11.67 3.43C11.74 3.36 11.77 3.26 11.77 3.15C11.77 3.04 11.74 2.94 11.67 2.87C11.60 2.80 11.50 2.76 11.38 2.76C11.26 2.76 11.17 2.80 11.10 2.87C11.03 2.94 10.99 3.04 10.99 3.15ZM11.17 6.16L11.17 12.60L11.59 12.60L11.59 6.16ZM20.10 6.16L22.90 12.95L25.70 6.16L25.21 6.16L22.90 12.01L20.59 6.16ZM38.78 9.06L33.94 9.06C33.95 8.38 34.20 7.77 34.68 7.25C35.17 6.73 35.75 6.47 36.43 6.47C37.11 6.47 37.67 6.72 38.11 7.24C38.55 7.75 38.77 8.36 38.78 9.06ZM33.91 9.48L39.21 9.48C39.22 9.43 39.23 9.38 39.23 9.32C39.23 8.33 38.97 7.53 38.45 6.94C37.93 6.34 37.26 6.05 36.43 6.05C35.58 6.05 34.87 6.36 34.31 6.99C33.75 7.61 33.47 8.41 33.47 9.38C33.47 10.33 33.77 11.13 34.36 11.76C34.94 12.39 35.63 12.71 36.43 12.71C37.66 12.71 38.58 12.13 39.19 10.96L38.82 10.74C38.28 11.76 37.49 12.28 36.46 12.28C35.77 12.28 35.17 12.01 34.68 11.47C34.18 10.92 33.93 10.26 33.91 9.48ZM58.20 6.16L60.93 12.32L59.53 15.68L60.02 15.68L64.08 6.16L63.59 6.16L61.18 11.87L58.67 6.16ZM71.85 9.38C71.85 10.36 72.14 11.16 72.71 11.78C73.28 12.40 74.01 12.71 74.89 12.71C75.76 12.71 76.49 12.40 77.06 11.78C77.64 11.16 77.92 10.36 77.92 9.38C77.92 8.40 77.64 7.60 77.06 6.98C76.49 6.36 75.76 6.05 74.89 6.05C74.01 6.05 73.28 6.36 72.71 6.98C72.14 7.60 71.85 8.40 71.85 9.38ZM72.27 9.38C72.27 8.52 72.52 7.82 73.01 7.28C73.50 6.74 74.13 6.47 74.89 6.47C75.64 6.47 76.27 6.74 76.76 7.28C77.26 7.82 77.50 8.52 77.50 9.38C77.50 10.24 77.26 10.94 76.76 11.48C76.27 12.02 75.64 12.29 74.89 12.29C74.13 12.29 73.50 12.02 73.01 11.48C72.52 10.94 72.27 10.24 72.27 9.38ZM90.87 10.08C90.87 10.64 90.67 11.15 90.27 11.61C89.86 12.06 89.35 12.29 88.75 12.29C87.69 12.29 87.16 11.60 87.16 10.22L87.16 6.16L86.74 6.16L86.74 10.36C86.74 11.08 86.90 11.65 87.22 12.07C87.54 12.50 88.00 12.71 88.61 12.71C89.19 12.71 89.68 12.57 90.06 12.30C90.44 12.02 90.72 11.64 90.87 11.14L90.87 12.60L91.29 12.60L91.29 6.16L90.87 6.16ZM103.40 6.96L103.66 6.57C103.29 6.22 102.94 6.05 102.59 6.05C101.81 6.05 101.31 6.51 101.09 7.43L101.09 6.16L100.67 6.16L100.67 12.60L101.09 12.60L101.09 8.68C101.09 8.17 101.22 7.68 101.47 7.21C101.72 6.74 102.05 6.51 102.44 6.51C102.86 6.51 103.18 6.66 103.40 6.96ZM123.26 1.68L123.26 12.60L123.68 12.60L123.68 1.68ZM137.19 10.08C137.19 10.64 136.98 11.15 136.58 11.61C136.17 12.06 135.66 12.29 135.06 12.29C134.00 12.29 133.48 11.60 133.48 10.22L133.48 6.16L133.06 6.16L133.06 10.36C133.06 11.08 133.21 11.65 133.53 12.07C133.85 12.50 134.31 12.71 134.92 12.71C135.51 12.71 135.99 12.57 136.37 12.30C136.76 12.02 137.03 11.64 137.19 11.14L137.19 12.60L137.61 12.60L137.61 6.16L137.19 6.16ZM150.37 6.16L148.48 8.89L146.61 6.16L146.08 6.16L148.23 9.28L145.94 12.60L146.47 12.60L148.48 9.66L150.51 12.60L151.05 12.60L148.76 9.28L150.91 6.16ZM163.51 10.08C163.51 10.64 163.30 11.15 162.90 11.61C162.49 12.06 161.98 12.29 161.38 12.29C160.32 12.29 159.80 11.60 159.80 10.22L159.80 6.16L159.38 6.16L159.38 10.36C159.38 11.08 159.53 11.65 159.85 12.07C160.17 12.50 160.63 12.71 161.24 12.71C161.83 12.71 162.31 12.57 162.69 12.30C163.08 12.02 163.35 11.64 163.51 11.14L163.51 12.60L163.93 12.60L163.93 6.16L163.51 6.16ZM176.04 6.96L176.29 6.57C175.92 6.22 175.57 6.05 175.22 6.05C174.44 6.05 173.94 6.51 173.73 7.43L173.73 6.16L173.31 6.16L173.31 12.60L173.73 12.60L173.73 8.68C173.73 8.17 173.85 7.68 174.10 7.21C174.36 6.74 174.68 6.51 175.07 6.51C175.49 6.51 175.81 6.66 176.04 6.96ZM183.71 6.16L186.44 12.32L185.04 15.68L185.53 15.68L189.59 6.16L189.10 6.16L186.69 11.87L184.18 6.16Z"></path></g></svg>