<svg data-v-423bf9ae="" xmlns="http://www.w3.org/2000/svg" viewBox="0 0 309.247479247858 60" class="font"><!----><!----><!----><g data-v-423bf9ae="" id="6e2a1651-6be0-49a6-a509-80968cc63d17" fill="white" transform="matrix(5.439709543503888,0,0,5.439709543503888,-7.615589440262795,-7.6155938272591115)"><path d="M7.99 11.58L7.99 11.58Q8.18 11.58 8.29 11.68L8.29 11.68L8.29 11.68Q8.41 11.79 8.41 11.96L8.41 11.96L8.41 11.96Q8.41 12.12 8.29 12.23L8.29 12.23L8.29 12.23Q8.18 12.33 7.99 12.33L7.99 12.33L1.82 12.33L1.82 12.33Q1.65 12.33 1.53 12.21L1.53 12.21L1.53 12.21Q1.40 12.10 1.40 11.91L1.40 11.91L1.40 1.82L1.40 1.82Q1.40 1.64 1.53 1.52L1.53 1.52L1.53 1.52Q1.65 1.40 1.82 1.40L1.82 1.40L1.82 1.40Q2.00 1.40 2.12 1.52L2.12 1.52L2.12 1.52Q2.24 1.64 2.24 1.82L2.24 1.82L2.24 11.58L7.99 11.58ZM10.30 5.10L10.30 5.10Q10.30 4.90 10.42 4.79L10.42 4.79L10.42 4.79Q10.54 4.68 10.72 4.68L10.72 4.68L10.72 4.68Q10.92 4.68 11.03 4.79L11.03 4.79L11.03 4.79Q11.14 4.90 11.14 5.10L11.14 5.10L11.14 11.91L11.14 11.91Q11.14 12.10 11.03 12.21L11.03 12.21L11.03 12.21Q10.92 12.33 10.72 12.33L10.72 12.33L10.72 12.33Q10.54 12.33 10.42 12.21L10.42 12.21L10.42 12.21Q10.30 12.10 10.30 11.91L10.30 11.91L10.30 5.10ZM10.72 1.76L10.72 1.76Q10.99 1.76 11.18 1.93L11.18 1.93L11.18 1.93Q11.37 2.10 11.37 2.41L11.37 2.41L11.37 2.41Q11.37 2.69 11.18 2.88L11.18 2.88L11.18 2.88Q10.99 3.07 10.71 3.07L10.71 3.07L10.71 3.07Q10.43 3.07 10.25 2.88L10.25 2.88L10.25 2.88Q10.07 2.69 10.07 2.41L10.07 2.41L10.07 2.41Q10.07 2.10 10.26 1.93L10.26 1.93L10.26 1.93Q10.46 1.76 10.72 1.76L10.72 1.76ZM19.96 4.69L19.96 4.69Q20.20 4.80 20.20 5.05L20.20 5.05L20.20 5.05Q20.20 5.15 20.17 5.21L20.17 5.21L17.02 12.05L17.02 12.05Q16.88 12.35 16.58 12.35L16.58 12.35L16.58 12.35Q16.45 12.35 16.34 12.27L16.34 12.27L16.34 12.27Q16.24 12.19 16.18 12.05L16.18 12.05L12.99 5.22L12.99 5.22Q12.96 5.17 12.96 5.07L12.96 5.07L12.96 5.07Q12.96 4.82 13.20 4.70L13.20 4.70L13.20 4.70Q13.29 4.66 13.37 4.66L13.37 4.66L13.37 4.66Q13.61 4.66 13.72 4.90L13.72 4.90L16.59 11.12L19.42 4.89L19.42 4.89Q19.53 4.65 19.78 4.65L19.78 4.65L19.78 4.65Q19.88 4.65 19.96 4.69L19.96 4.69ZM24.92 4.61L24.92 4.61Q25.94 4.61 26.75 5.09L26.75 5.09L26.75 5.09Q27.55 5.57 28 6.43L28 6.43L28 6.43Q28.45 7.28 28.45 8.37L28.45 8.37L28.45 8.37Q28.45 8.55 28.34 8.66L28.34 8.66L28.34 8.66Q28.22 8.76 28.04 8.76L28.04 8.76L22.18 8.76L22.18 8.76Q22.22 9.59 22.61 10.24L22.61 10.24L22.61 10.24Q23.00 10.89 23.66 11.26L23.66 11.26L23.66 11.26Q24.32 11.62 25.13 11.62L25.13 11.62L25.13 11.62Q25.68 11.62 26.23 11.43L26.23 11.43L26.23 11.43Q26.78 11.24 27.10 10.93L27.10 10.93L27.10 10.93Q27.24 10.82 27.40 10.82L27.40 10.82L27.40 10.82Q27.55 10.82 27.65 10.91L27.65 10.91L27.65 10.91Q27.80 11.03 27.80 11.20L27.80 11.20L27.80 11.20Q27.80 11.34 27.68 11.47L27.68 11.47L27.68 11.47Q27.23 11.87 26.51 12.14L26.51 12.14L26.51 12.14Q25.79 12.40 25.13 12.40L25.13 12.40L25.13 12.40Q24.02 12.40 23.16 11.91L23.16 11.91L23.16 11.91Q22.30 11.41 21.81 10.52L21.81 10.52L21.81 10.52Q21.32 9.63 21.32 8.51L21.32 8.51L21.32 8.51Q21.32 7.38 21.78 6.49L21.78 6.49L21.78 6.49Q22.23 5.60 23.05 5.10L23.05 5.10L23.05 5.10Q23.87 4.61 24.92 4.61L24.92 4.61ZM24.92 5.39L24.92 5.39Q23.83 5.39 23.08 6.12L23.08 6.12L23.08 6.12Q22.33 6.85 22.19 8.04L22.19 8.04L27.64 8.04L27.64 8.04Q27.54 6.85 26.80 6.12L26.80 6.12L26.80 6.12Q26.05 5.39 24.92 5.39L24.92 5.39ZM41.10 11.58L41.10 11.58Q41.29 11.58 41.41 11.68L41.41 11.68L41.41 11.68Q41.52 11.79 41.52 11.96L41.52 11.96L41.52 11.96Q41.52 12.12 41.41 12.23L41.41 12.23L41.41 12.23Q41.29 12.33 41.10 12.33L41.10 12.33L34.93 12.33L34.93 12.33Q34.76 12.33 34.64 12.21L34.64 12.21L34.64 12.21Q34.51 12.10 34.51 11.91L34.51 11.91L34.51 1.82L34.51 1.82Q34.51 1.64 34.64 1.52L34.64 1.52L34.64 1.52Q34.76 1.40 34.93 1.40L34.93 1.40L34.93 1.40Q35.11 1.40 35.23 1.52L35.23 1.52L35.23 1.52Q35.35 1.64 35.35 1.82L35.35 1.82L35.35 11.58L41.10 11.58ZM49.62 4.68L49.62 4.68Q49.81 4.68 49.92 4.79L49.92 4.79L49.92 4.79Q50.04 4.90 50.04 5.10L50.04 5.10L50.04 11.91L50.04 11.91Q50.04 12.10 49.92 12.21L49.92 12.21L49.92 12.21Q49.81 12.33 49.62 12.33L49.62 12.33L49.62 12.33Q49.43 12.33 49.31 12.21L49.31 12.21L49.31 12.21Q49.20 12.10 49.20 11.91L49.20 11.91L49.20 11.19L49.20 11.19Q48.72 11.77 48.03 12.10L48.03 12.10L48.03 12.10Q47.35 12.43 46.54 12.43L46.54 12.43L46.54 12.43Q45.51 12.43 44.71 12.01L44.71 12.01L44.71 12.01Q43.90 11.59 43.45 10.79L43.45 10.79L43.45 10.79Q42.99 9.98 42.99 8.86L42.99 8.86L42.99 5.10L42.99 5.10Q42.99 4.91 43.11 4.79L43.11 4.79L43.11 4.79Q43.23 4.68 43.41 4.68L43.41 4.68L43.41 4.68Q43.60 4.68 43.71 4.79L43.71 4.79L43.71 4.79Q43.83 4.91 43.83 5.10L43.83 5.10L43.83 8.86L43.83 8.86Q43.83 10.19 44.58 10.89L44.58 10.89L44.58 10.89Q45.33 11.59 46.54 11.59L46.54 11.59L46.54 11.59Q47.28 11.59 47.89 11.30L47.89 11.30L47.89 11.30Q48.50 11.02 48.85 10.51L48.85 10.51L48.85 10.51Q49.20 10.00 49.20 9.38L49.20 9.38L49.20 5.10L49.20 5.10Q49.20 4.90 49.31 4.79L49.31 4.79L49.31 4.79Q49.43 4.68 49.62 4.68L49.62 4.68ZM58.13 11.65L58.13 11.65Q58.25 11.82 58.25 11.97L58.25 11.97L58.25 11.97Q58.25 12.14 58.13 12.24L58.13 12.24L58.13 12.24Q58.00 12.33 57.88 12.33L57.88 12.33L57.88 12.33Q57.71 12.33 57.62 12.28L57.62 12.28L57.62 12.28Q57.53 12.22 57.40 12.07L57.40 12.07L55.05 8.95L52.50 12.21L52.50 12.21Q52.42 12.33 52.21 12.33L52.21 12.33L52.21 12.33Q52.02 12.33 51.90 12.21L51.90 12.21L51.90 12.21Q51.79 12.08 51.79 11.91L51.79 11.91L51.79 11.91Q51.79 11.76 51.88 11.65L51.88 11.65L54.49 8.41L52.19 5.38L52.19 5.38Q52.09 5.26 52.09 5.10L52.09 5.10L52.09 5.10Q52.09 4.93 52.21 4.80L52.21 4.80L52.21 4.80Q52.33 4.68 52.51 4.68L52.51 4.68L52.51 4.68Q52.70 4.68 52.82 4.80L52.82 4.80L55.06 7.78L57.40 4.93L57.40 4.93Q57.61 4.68 57.83 4.68L57.83 4.68L57.83 4.68Q58.02 4.68 58.12 4.79L58.12 4.79L58.12 4.79Q58.23 4.90 58.23 5.07L58.23 5.07L58.23 5.07Q58.23 5.22 58.11 5.38L58.11 5.38L55.64 8.33L58.13 11.65Z"></path></g><!----><!----></svg>